<?xml version="1.0" encoding="UTF-8" standalone="no"?> <svg width="48" height="48" viewBox="0 0 48 48" fill="none" xmlns="http://www.w3.org/2000/svg">
<path d="M39 2H9C8.20435 2 7.44129 2.31607 6.87868 2.87868C6.31607 3.44129 6 4.20435 6 5V43C6 43.7956 6.31607 44.5587 6.87868 45.1213C7.44129 45.6839 8.20435 46 9 46H39C39.7956 46 40.5587 45.6839 41.1213 45.1213C41.6839 44.5587 42 43.7956 42 43V5C42 4.20435 41.6839 3.44129 41.1213 2.87868C40.5587 2.31607 39.7956 2 39 2ZM13 44V41H15V44H13ZM17 44V41H19V44H17ZM21 44V41H23V44H21ZM25 44V41H27V44H25ZM29 44V41H31V44H29ZM33 44V41H35V44H33ZM40 43C40 43.2652 39.8946 43.5196 39.7071 43.7071C39.5196 43.8946 39.2652 44 39 44H37V41C37 40.4696 36.7893 39.9609 36.4142 39.5858C36.0391 39.2107 35.5304 39 35 39H13C12.4696 39 11.9609 39.2107 11.5858 39.5858C11.2107 39.9609 11 40.4696 11 41V44H9C8.73478 44 8.48043 43.8946 8.29289 43.7071C8.10536 43.5196 8 43.2652 8 43V5C8 4.73478 8.10536 4.48043 8.29289 4.29289C8.48043 4.10536 8.73478 4 9 4H39C39.2652 4 39.5196 4.10536 39.7071 4.29289C39.8946 4.48043 40 4.73478 40 5V43Z" fill="black"/>
<path d="M11 8C11.5523 8 12 7.55228 12 7C12 6.44772 11.5523 6 11 6C10.4477 6 10 6.44772 10 7C10 7.55228 10.4477 8 11 8Z" fill="black"/>
<path d="M37 8C37.5523 8 38 7.55228 38 7C38 6.44772 37.5523 6 37 6C36.4477 6 36 6.44772 36 7C36 7.55228 36.4477 8 37 8Z" fill="black"/>
<path d="M11 37C11.5523 37 12 36.5523 12 36C12 35.4477 11.5523 35 11 35C10.4477 35 10 35.4477 10 36C10 36.5523 10.4477 37 11 37Z" fill="black"/>
<path d="M37 37C37.5523 37 38 36.5523 38 36C38 35.4477 37.5523 35 37 35C36.4477 35 36 35.4477 36 36C36 36.5523 36.4477 37 37 37Z" fill="black"/>
<path d="M19 20C19.2652 20 19.5196 19.8946 19.7071 19.7071C19.8946 19.5196 20 19.2652 20 19C20 18.7348 19.8946 18.4804 19.7071 18.2929C19.5196 18.1054 19.2652 18 19 18H17C16.4696 18 15.9609 18.2107 15.5858 18.5858C15.2107 18.9609 15 19.4696 15 20V21C15 21.5304 15.2107 22.0391 15.5858 22.4142C15.9609 22.7893 16.4696 23 17 23H18V24H16C15.7348 24 15.4804 24.1054 15.2929 24.2929C15.1054 24.4804 15 24.7348 15 25C15 25.2652 15.1054 25.5196 15.2929 25.7071C15.4804 25.8946 15.7348 26 16 26H18C18.5304 26 19.0391 25.7893 19.4142 25.4142C19.7893 25.0391 20 24.5304 20 24V23C20 22.4696 19.7893 21.9609 19.4142 21.5858C19.0391 21.2107 18.5304 21 18 21H17V20H19Z" fill="black"/>
<path d="M25 20C25.2652 20 25.5196 19.8946 25.7071 19.7071C25.8946 19.5196 26 19.2652 26 19C26 18.7348 25.8946 18.4804 25.7071 18.2929C25.5196 18.1054 25.2652 18 25 18H23C22.4696 18 21.9609 18.2107 21.5858 18.5858C21.2107 18.9609 21 19.4696 21 20V21C21 21.5304 21.2107 22.0391 21.5858 22.4142C21.9609 22.7893 22.4696 23 23 23H24V24H22C21.7348 24 21.4804 24.1054 21.2929 24.2929C21.1054 24.4804 21 24.7348 21 25C21 25.2652 21.1054 25.5196 21.2929 25.7071C21.4804 25.8946 21.7348 26 22 26H24C24.5304 26 25.0391 25.7893 25.4142 25.4142C25.7893 25.0391 26 24.5304 26 24V23C26 22.4696 25.7893 21.9609 25.4142 21.5858C25.0391 21.2107 24.5304 21 24 21H23V20H25Z" fill="black"/>
<path d="M30 18H28C27.7348 18 27.4804 18.1054 27.2929 18.2929C27.1054 18.4804 27 18.7348 27 19V25C27 25.2652 27.1054 25.5196 27.2929 25.7071C27.4804 25.8946 27.7348 26 28 26H30C30.7956 26 31.5587 25.6839 32.1213 25.1213C32.6839 24.5587 33 23.7956 33 23V21C33 20.2044 32.6839 19.4413 32.1213 18.8787C31.5587 18.3161 30.7956 18 30 18ZM31 23C31 23.2652 30.8946 23.5196 30.7071 23.7071C30.5196 23.8946 30.2652 24 30 24H29V20H30C30.2652 20 30.5196 20.1054 30.7071 20.2929C30.8946 20.4804 31 20.7348 31 21V23Z" fill="black"/>
<path d="M37 28V16C37 15.4696 36.7893 14.9609 36.4142 14.5858C36.0391 14.2107 35.5304 14 35 14H13C12.4696 14 11.9609 14.2107 11.5858 14.5858C11.2107 14.9609 11 15.4696 11 16V28C11 28.5304 11.2107 29.0391 11.5858 29.4142C11.9609 29.7893 12.4696 30 13 30H35C35.5304 30 36.0391 29.7893 36.4142 29.4142C36.7893 29.0391 37 28.5304 37 28ZM13 28V16H35V28H13Z" fill="black"/>
</svg>
